<?xml version="1.0" encoding="UTF-8" standalone="no"?><!DOCTYPE svg PUBLIC "-//W3C//DTD SVG 1.1//EN" "http://www.w3.org/Graphics/SVG/1.1/DTD/svg11.dtd"><svg width="100%" height="100%" viewBox="0 0 100 157" version="1.1" xmlns="http://www.w3.org/2000/svg" xmlnsxlink="http://www.w3.org/1999/xlink" xmlspace="preserve" xmlnsserif="http://www.serif.com/" style="fill-rule:evenodd;clip-rule:evenodd;stroke-linejoin:round;stroke-miterlimit:2;"><path d="M69.311,47.484c-0.069,-10.453 -8.916,-18.92 -19.803,-18.92c-10.93,0 -19.803,8.533 -19.803,19.043l-29.705,0c0,-26.275 22.184,-47.607 49.508,-47.607c25.616,0 46.715,18.749 49.252,42.743l0.256,4.864l-0,89.435c-0,5.068 -2.094,9.929 -5.821,13.513c-3.727,3.584 -8.782,5.597 -14.052,5.597l-59.261,0c-5.273,0 -10.33,-2.014 -14.059,-5.599c-3.728,-3.586 -5.823,-8.449 -5.823,-13.519l0,-57.081c-0,-5.043 2.083,-9.88 5.792,-13.446c3.709,-3.566 8.738,-5.57 13.983,-5.57l49.536,0l0,-13.33l-0,-0.123Zm-19.931,37.258l0.256,-0c10.871,0.066 19.675,8.573 19.675,19.042c0,5.913 -2.809,11.2 -7.212,14.694l7.212,13.871l-39.606,-0l7.212,-13.871c-4.404,-3.494 -7.212,-8.781 -7.212,-14.694c-0,-10.469 8.804,-18.976 19.675,-19.042Z" style="fill:#4c6ef5;"/></svg>