<?xml version="1.0" encoding="UTF-8" standalone="no"?><!DOCTYPE svg PUBLIC "-//W3C//DTD SVG 1.1//EN" "http://www.w3.org/Graphics/SVG/1.1/DTD/svg11.dtd"><svg width="100%" height="100%" viewBox="0 0 941 205" version="1.1" xmlns="http://www.w3.org/2000/svg" xmlnsxlink="http://www.w3.org/1999/xlink" xmlspace="preserve" xmlnsserif="http://www.serif.com/" style="fill-rule:evenodd;clip-rule:evenodd;stroke-linejoin:round;stroke-miterlimit:2;"><path d="M327.856,95.385c-0.069,-10.454 -8.916,-18.92 -19.803,-18.92c-10.93,-0 -19.803,8.533 -19.803,19.043l-29.705,-0c-0,-26.275 22.184,-47.608 49.508,-47.608c25.616,0 46.715,18.749 49.252,42.743l0.256,4.865l-0,89.434c-0,5.069 -2.094,9.93 -5.821,13.513c-3.727,3.584 -8.782,5.598 -14.052,5.598l-59.261,-0c-5.273,-0 -10.33,-2.015 -14.059,-5.6c-3.728,-3.585 -5.823,-8.448 -5.823,-13.519l-0,-57.08c-0,-5.044 2.083,-9.88 5.792,-13.446c3.708,-3.567 8.738,-5.57 13.983,-5.57l49.536,-0l0,-13.33l-0,-0.123Zm-19.931,37.257l0.256,-0c10.871,0.066 19.675,8.573 19.675,19.043c0,5.913 -2.809,11.2 -7.212,14.694l7.212,13.87l-39.606,0l7.212,-13.87c-4.404,-3.494 -7.212,-8.781 -7.212,-14.694c-0,-10.47 8.804,-18.977 19.675,-19.043Z" style="fill:#4c6ef5;"/><g><path d="M0,161.572l21.973,-4.541c4.882,18.653 20.312,27.979 46.289,27.979c9.57,-0 17.676,-2.146 24.316,-6.438c6.641,-4.291 9.961,-10.338 9.961,-18.14c0,-11.607 -8.451,-18.971 -25.353,-22.091l-31.19,-5.919c-12.207,-2.344 -21.924,-6.934 -29.15,-13.77c-7.227,-6.836 -10.84,-15.869 -10.84,-27.099c-0,-12.403 4.932,-22.779 14.795,-31.128c9.863,-8.35 23.144,-12.525 39.844,-12.525c32.128,0 51.953,12.549 59.472,37.647l-21.094,4.541c-6.054,-15.43 -18.505,-23.145 -37.353,-23.145c-9.375,0 -17.066,1.927 -23.071,5.78c-6.006,3.852 -9.009,9.242 -9.009,16.168c-0,10.924 7.669,17.8 23.007,20.629l28.848,5.177c30.176,5.478 45.264,20.101 45.264,43.87c-0,13.597 -5.615,24.577 -16.846,32.941c-11.23,8.363 -26.172,12.545 -44.824,12.545c-35.059,-0 -56.738,-14.16 -65.039,-42.481Z" style="fill:#4c6ef5;fill-rule:nonzero;"/><path d="M226.172,184.277l-0,18.164c-8.106,1.075 -15.137,1.612 -21.094,1.612c-28.613,-0 -42.92,-14.958 -42.92,-44.873l0,-89.16l-26.221,-0l0,-18.018l26.221,-0l1.026,-37.207l21.386,-2.051l0,39.258l33.106,-0l-0,18.018l-33.106,-0l0,92.987c0,15.255 7.91,22.882 23.731,22.882c5.273,-0 11.23,-0.537 17.871,-1.612Z" style="fill:#4c6ef5;fill-rule:nonzero;"/><path d="M390.088,161.572l21.973,-4.541c4.882,18.653 20.312,27.979 46.289,27.979c9.57,-0 17.675,-2.146 24.316,-6.438c6.641,-4.291 9.961,-10.338 9.961,-18.14c-0,-11.607 -8.451,-18.971 -25.353,-22.091l-31.19,-5.919c-12.207,-2.344 -21.924,-6.934 -29.15,-13.77c-7.227,-6.836 -10.84,-15.869 -10.84,-27.099c-0,-12.403 4.931,-22.779 14.795,-31.128c9.863,-8.35 23.144,-12.525 39.843,-12.525c32.129,0 51.954,12.549 59.473,37.647l-21.094,4.541c-6.054,-15.43 -18.506,-23.145 -37.353,-23.145c-9.375,0 -17.066,1.927 -23.071,5.78c-6.006,3.852 -9.009,9.242 -9.009,16.168c-0,10.924 7.669,17.8 23.007,20.629l28.848,5.177c30.176,5.478 45.264,20.101 45.264,43.87c-0,13.597 -5.615,24.577 -16.846,32.941c-11.23,8.363 -26.172,12.545 -44.824,12.545c-35.059,-0 -56.738,-14.16 -65.039,-42.481Z" style="fill:#4c6ef5;fill-rule:nonzero;"/><path d="M665.186,199.951l-22.999,0l0,-89.795c0,-10.547 -0.659,-18.457 -1.977,-23.73c-1.318,-5.274 -4.443,-9.839 -9.375,-13.697c-4.932,-3.857 -10.62,-5.786 -17.065,-5.786c-11.817,0 -21.705,4.834 -29.664,14.502c-7.959,9.668 -11.938,22.608 -11.938,38.819l-0,79.687l-22.998,0l-0,-199.951l22.998,0l-0,79.248c10.449,-20.898 25.391,-31.348 44.824,-31.348c8.692,0 16.431,1.709 23.218,5.127c6.787,3.418 11.987,7.911 15.601,13.477c3.613,5.566 6.079,11.059 7.397,16.479c1.318,5.42 1.978,14.478 1.978,27.173l-0,89.795Z" style="fill:#4c6ef5;fill-rule:nonzero;"/><path d="M808.887,155.859l21.386,4.395c-3.906,12.64 -11.523,23.1 -22.851,31.38c-11.328,8.279 -24.658,12.419 -39.99,12.419c-20.215,-0 -36.573,-7.111 -49.073,-21.333c-12.5,-14.222 -18.75,-32.868 -18.75,-55.938c0,-23.556 6.495,-42.592 19.483,-57.108c12.988,-14.516 29.297,-21.774 48.926,-21.774c19.336,0 34.887,6.69 46.655,20.069c11.767,13.379 17.798,33.398 18.091,60.058l-107.52,0c0,22.364 4.688,37.452 14.063,45.264c9.375,7.813 19.287,11.719 29.736,11.719c18.848,-0 32.129,-9.717 39.844,-29.151Zm-1.319,-44.97c-0.195,-8.301 -1.562,-15.674 -4.101,-22.119c-2.539,-6.446 -6.836,-11.939 -12.891,-16.48c-6.055,-4.541 -13.33,-6.811 -21.826,-6.811c-11.426,-0 -21.118,4.101 -29.077,12.304c-7.959,8.203 -12.427,19.238 -13.403,33.106l81.298,-0Z" style="fill:#4c6ef5;fill-rule:nonzero;"/><path d="M890.332,199.951l-22.998,0l-0,-147.949l20.215,-0l-0,34.57c7.129,-16.308 14.282,-26.88 21.46,-31.714c7.178,-4.834 14.526,-7.251 22.046,-7.251c2.343,0 5.371,0.196 9.082,0.586l-0,21.973l-4.688,0c-12.695,0 -23.242,4.736 -31.64,14.209c-8.399,9.473 -12.891,21.924 -13.477,37.354l0,78.222Z" style="fill:#4c6ef5;fill-rule:nonzero;"/></g></svg>